# xmcd
#
# Track frame offsets: 
#        183
#        16578
#        36433
#        53555
#        69293
#        84363
#        103015
#        117645
#        133600
#        152863
#        173308
#        189830
#        206588
#        239600
#        259103
#        279565
#        299890
#
# Disc length: 4198 seconds
#
# Revision: 0
# Processed by: cddbd v1.5.1PL2 Copyright (c) Steve Scherf et al.
# Submitted via: ExactAudioCopy v0.95b4
#
DISCID=ee106411
DTITLE=Various Artist - Deep Down In Florida
DYEAR=1995
DGENRE=Soul
TTITLE0=Otis Clay - All Because Of Your Love
TTITLE1=David Hudson - Honey Honey
TTITLE2=Facts Of Life - Sometimes
TTITLE3=Bobby Patterson - If I Hadn't Slipped Up And Got Caught 
TTITLE4=Otis Clay - (Ain't Nothing Like A) Sweet Woman's Love
TTITLE5=Charles Allen - God Blessed Our Love
TTITLE6=Otis Clay - All I Need Is You 
TTITLE7=Meadows Brothers - I've Tried It All
TTITLE8=Charles Johnson - Baby I Cried Cried Cried
TTITLE9=Otis Clay - Today My Whole World Fell
TTITLE10=Willie and Anthony - It's Never Too Late
TTITLE11=Otis Clay - Let Me In 
TTITLE12=John Mitchell - Love On The Phone
TTITLE13=Facts Of Life - Caught In The Act (Of Gettin' It On)
TTITLE14=Lee Shot Williams - The Love You Save
TTITLE15=David Hudson - When I'm Loving You
TTITLE16=Otis Clay - Special Kind Of Love
EXTD=
EXTT0=
EXTT1=
EXTT2=
EXTT3=
EXTT4=
EXTT5=
EXTT6=
EXTT7=
EXTT8=
EXTT9=
EXTT10=
EXTT11=
EXTT12=
EXTT13=
EXTT14=
EXTT15=
EXTT16=
PLAYORDER=
